<svg width="20" height="20" viewBox="0 0 20 20" fill="none" xmlns="http://www.w3.org/2000/svg">
<path fill-rule="evenodd" clip-rule="evenodd" d="M16.3619 3.77967C14.721 2.13696 12.539 1.23191 10.2142 1.23096C5.42397 1.23096 1.52525 5.12936 1.52338 9.92102C1.52271 11.4528 1.9229 12.9479 2.68346 14.2658L1.4505 18.7692L6.05759 17.5607C7.32696 18.2531 8.75616 18.618 10.2107 18.6185H10.2142C10.2145 18.6185 10.214 18.6185 10.2143 18.6185C15.004 18.6185 18.903 14.7197 18.905 9.92797C18.9058 7.60578 18.0027 5.4223 16.3619 3.77967ZM10.2142 17.1508H10.2113C8.91516 17.1503 7.64386 16.802 6.53479 16.1439L6.27106 15.9874L3.53714 16.7045L4.2669 14.039L4.09513 13.7657C3.37208 12.6156 2.9902 11.2864 2.99076 9.92152C2.99231 5.93888 6.23278 2.69876 10.2171 2.69876C12.1465 2.69936 13.9601 3.45172 15.3239 4.81708C16.6877 6.18243 17.4383 7.99729 17.4376 9.92737C17.4359 13.9103 14.1956 17.1508 10.2142 17.1508Z" fill="#292A2C"/>
<path fill-rule="evenodd" clip-rule="evenodd" d="M14.1764 11.7409C13.9592 11.6322 12.8916 11.1069 12.6925 11.0344C12.4935 10.962 12.3487 10.9257 12.204 11.1431C12.0592 11.3605 11.6431 11.8496 11.5164 11.9946C11.3897 12.1394 11.263 12.1577 11.0459 12.0489C10.8288 11.9402 10.1291 11.7109 9.29967 10.9711C8.65409 10.3953 8.2183 9.6842 8.09159 9.46674C7.96494 9.2494 8.07811 9.13189 8.18684 9.02358C8.28452 8.92625 8.40401 8.76997 8.51259 8.64315C8.62114 8.5164 8.65734 8.42573 8.72973 8.28092C8.80212 8.13596 8.76596 8.00914 8.71163 7.90048C8.65734 7.79179 8.22307 6.72295 8.04213 6.28808C7.86581 5.86471 7.68681 5.92207 7.5535 5.91533C7.42703 5.90902 7.28207 5.90771 7.13732 5.90771C6.99258 5.90771 6.75728 5.96208 6.55828 6.17942C6.35924 6.39684 5.79822 6.92223 5.79822 7.99097C5.79822 9.05985 6.57634 10.0924 6.68492 10.2373C6.79347 10.3823 8.21615 12.5756 10.3945 13.5162C10.9126 13.74 11.3171 13.8736 11.6324 13.9736C12.1526 14.1389 12.626 14.1156 13.0002 14.0597C13.4174 13.9973 14.2849 13.5344 14.4659 13.0272C14.6469 12.5199 14.6469 12.0851 14.5925 11.9945C14.5383 11.904 14.3935 11.8496 14.1764 11.7409Z" fill="#292A2C"/>
</svg>
